# Aspose.3D Wavefront OBJ Exporter
# Copyright 2004-2022 Aspose Pty Ltd.
# File created: 04/26/2022 17:21:31

mtllib material.lib

#
# object _0944b1c1_09b9_41c7_b8fd_54a2aa9b26bb
#

v 0.08279266953468323 -1.811198474276927E-17 0.0407845638692379
v -0.08279266953468323 1.811198474276927E-17 -0.0407845638692379
v 0.08279266953468323 1.811198474276927E-17 -0.0407845638692379
v -0.08279266953468323 -1.811198474276927E-17 0.0407845638692379
v -0.08279266953468323 1.811198474276927E-17 -0.0407845638692379
v -0.08279266953468323 0.07096514105796814 0.0407845638692379
v -0.08279266953468323 0.07096514105796814 -0.0407845638692379
v -0.08279266953468323 -1.811198474276927E-17 0.0407845638692379
v -0.08279266953468323 -1.811198474276927E-17 0.0407845638692379
v 0.08279266953468323 0.07096514105796814 0.0407845638692379
v -0.08279266953468323 0.07096514105796814 0.0407845638692379
v 0.08279266953468323 -1.811198474276927E-17 0.0407845638692379
v 0.08279266953468323 1.811198474276927E-17 -0.0407845638692379
v -0.08279266953468323 0.07096514105796814 -0.0407845638692379
v 0.08279266953468323 0.07096514105796814 -0.0407845638692379
v -0.08279266953468323 1.811198474276927E-17 -0.0407845638692379
v 0.08279266953468323 -1.811198474276927E-17 0.0407845638692379
v 0.08279266953468323 0.07096514105796814 -0.0407845638692379
v 0.08279266953468323 0.07096514105796814 0.0407845638692379
v 0.08279266953468323 1.811198474276927E-17 -0.0407845638692379
v -0.08279266953468323 0.07096514105796814 0.0407845638692379
v 0.08279266953468323 0.07096514105796814 -0.0407845638692379
v -0.08279266953468323 0.07096514105796814 -0.0407845638692379
v 0.08279266953468323 0.07096514105796814 0.0407845638692379
# 24 vertices

vn 0 -1 -4.440892098500626E-16
vn 0 -1 -4.440892098500626E-16
vn 0 -1 -4.440892098500626E-16
vn 0 -1 -4.440892098500626E-16
vn -1 0 0
vn -1 0 0
vn -1 0 0
vn -1 0 0
vn 0 -4.440892098500626E-16 1
vn 0 -4.440892098500626E-16 1
vn 0 -4.440892098500626E-16 1
vn 0 -4.440892098500626E-16 1
vn 0 4.440892098500626E-16 -1
vn 0 4.440892098500626E-16 -1
vn 0 4.440892098500626E-16 -1
vn 0 4.440892098500626E-16 -1
vn 1 0 0
vn 1 0 0
vn 1 0 0
vn 1 0 0
vn 0 1 4.440892098500626E-16
vn 0 1 4.440892098500626E-16
vn 0 1 4.440892098500626E-16
vn 0 1 4.440892098500626E-16
# 24 vertex normals

vt 0 0 0
vt 1 1 0
vt 0 1 0
vt 1 0 0
vt 0 0 0
vt 1 1 0
vt 0 1 0
vt 1 0 0
vt 0 0 0
vt 1 1 0
vt 0 1 0
vt 1 0 0
vt 0 0 0
vt 1 1 0
vt 0 1 0
vt 1 0 0
vt 0 0 0
vt 1 1 0
vt 0 1 0
vt 1 0 0
vt 0 0 0
vt 1 1 0
vt 0 1 0
vt 1 0 0
# 24 texture coords

g _0944b1c1_09b9_41c7_b8fd_54a2aa9b26bb
usemtl Avery
s 1
f 1/1/1 2/2/2 3/3/3
f 1/1/1 4/4/4 2/2/2
f 5/5/5 6/6/6 7/7/7
f 5/5/5 8/8/8 6/6/6
f 9/9/9 10/10/10 11/11/11
f 9/9/9 12/12/12 10/10/10
f 13/13/13 14/14/14 15/15/15
f 13/13/13 16/16/16 14/14/14
f 17/17/17 18/18/18 19/19/19
f 17/17/17 20/20/20 18/18/18
f 21/21/21 22/22/22 23/23/23
f 21/21/21 24/24/24 22/22/22
#12 polygons

